<svg height="300px" width="300px" fill="#000000" xmlns="http://www.w3.org/2000/svg" data-name="Layer 1" viewBox="0 0 48 48" x="0px" y="0px"><title>Calendar</title><path d="M36.1,9.52H31.72V6.74a.9.9,0,1,0-1.79,0V9.52H18.07V6.74a.9.9,0,1,0-1.79,0V9.52H11.9a4.3,4.3,0,0,0-4.3,4.29V34.19a4.3,4.3,0,0,0,4.3,4.29H36.1a4.3,4.3,0,0,0,4.3-4.29V13.81A4.3,4.3,0,0,0,36.1,9.52Zm2.51,24.67a2.51,2.51,0,0,1-2.51,2.5H11.9a2.51,2.51,0,0,1-2.51-2.5V13.81a2.51,2.51,0,0,1,2.51-2.5h4.38v2.77a.9.9,0,1,0,1.79,0V11.31H29.93v2.77a.9.9,0,1,0,1.79,0V11.31H36.1a2.51,2.51,0,0,1,2.51,2.5Z"/><path d="M31.47,19.77l-7.93,7.32L18.93,22.8a.91.91,0,0,0-1.27.05.89.89,0,0,0,.05,1.27L22.93,29a.91.91,0,0,0,.61.24.93.93,0,0,0,.61-.23l8.54-7.88a.9.9,0,0,0-1.22-1.32Z"/></svg>