<svg height="300px" width="300px" fill="#000000" xmlns="http://www.w3.org/2000/svg" xmlns:xlink="http://www.w3.org/1999/xlink" xml:space="preserve" version="1.1" style="shape-rendering:geometricPrecision;text-rendering:geometricPrecision;image-rendering:optimizeQuality;" viewBox="0 0 2540 2540" x="0px" y="0px" fill-rule="evenodd" clip-rule="evenodd"><defs><style type="text/css">
   
    .fil0 {fill:#000000;fill-rule:nonzero}
   
  </style></defs><g><path class="fil0" d="M998 1315l-296 171c-58,33 -109,-55 -51,-88l268 -154 0 -114 -503 0c-28,0 -51,-23 -51,-51l0 -271c0,-28 23,-51 51,-51l503 0 0 -143c0,-37 41,-67 80,-41 189,109 378,218 567,327 33,19 33,68 -1,88l-567 327zm22 -236l0 106 419 -242c-140,-80 -279,-161 -419,-241 0,70 16,157 -50,157l-504 0 0 169 504 0c28,0 50,23 50,51z"/><path class="fil0" d="M1542 1225l296 -171c58,-33 109,55 51,88l-268 154 0 114 503 0c28,0 51,23 51,51l0 271c0,28 -23,51 -51,51l-503 0 0 143c0,37 -41,67 -80,41 -189,-109 -378,-218 -567,-327 -33,-19 -33,-68 1,-88l567 -327zm-22 236l0 -106 -419 242c140,80 279,161 419,241 0,-70 -16,-157 50,-157l504 0 0 -169 -504 0c-28,0 -50,-23 -50,-51z"/></g></svg>