<svg height="300px" width="300px" fill="#000000" xmlns:dc="http://purl.org/dc/elements/1.1/" xmlns:cc="http://creativecommons.org/ns#" xmlns:rdf="http://www.w3.org/1999/02/22-rdf-syntax-ns#" xmlns:svg="http://www.w3.org/2000/svg" xmlns="http://www.w3.org/2000/svg" xmlns:sodipodi="http://sodipodi.sourceforge.net/DTD/sodipodi-0.dtd" xmlns:inkscape="http://www.inkscape.org/namespaces/inkscape" version="1.1" x="0px" y="0px" viewBox="0 0 100 100"><g transform="translate(0,-952.36218)"><path style="font-size:medium;font-style:normal;font-variant:normal;font-weight:normal;font-stretch:normal;text-indent:0;text-align:start;text-decoration:none;line-height:normal;letter-spacing:normal;word-spacing:normal;text-transform:none;direction:ltr;block-progression:tb;writing-mode:lr-tb;text-anchor:start;baseline-shift:baseline;opacity:1;color:#000000;fill:#000000;fill-opacity:1;stroke:none;stroke-width:3.33333324999999990;marker:none;visibility:visible;display:inline;overflow:visible;enable-background:accumulate;font-family:Sans;-inkscape-font-specification:Sans" d="M 50 6 C 25.72316 6 6 25.72314 6 50 C 6 74.2768 25.72316 94 50 94 C 74.27684 94 94 74.2768 94 50 C 94 25.72314 74.27684 6 50 6 z M 50 10 C 72.115076 10 90 27.8849 90 50 C 90 72.1151 72.115076 90 50 90 C 27.884924 90 10 72.1151 10 50 C 10 27.8849 27.884924 10 50 10 z M 73.75 30.96875 A 2.0002 2.0002 0 0 0 72.59375 31.5625 L 40 64.15625 L 27.40625 51.5625 A 2.0002 2.0002 0 1 0 24.59375 54.40625 L 38.59375 68.40625 A 2.0002 2.0002 0 0 0 41.40625 68.40625 L 75.40625 34.40625 A 2.0002 2.0002 0 0 0 73.75 30.96875 z " transform="translate(0,952.36218)"/></g></svg>