<svg height="300px" width="300px" fill="#000000" xmlns="http://www.w3.org/2000/svg" xmlns:xlink="http://www.w3.org/1999/xlink" xml:space="preserve" version="1.1" style="shape-rendering:geometricPrecision;text-rendering:geometricPrecision;image-rendering:optimizeQuality;" viewBox="0 0 365.82 365.82" x="0px" y="0px" fill-rule="evenodd" clip-rule="evenodd"><defs><style type="text/css">
   
    .fil0 {fill:#000000;fill-rule:nonzero}
   
  </style></defs><g><path class="fil0" d="M182.91 0c101.02,0 182.91,81.89 182.91,182.91 0,101.01 -81.89,182.91 -182.91,182.91 -101.01,0 -182.91,-81.9 -182.91,-182.91 0,-101.02 81.9,-182.91 182.91,-182.91zm0 20.35c-89.78,0 -162.56,72.78 -162.56,162.56 0,89.78 72.78,162.55 162.56,162.55 89.78,0 162.56,-72.77 162.56,-162.55 0,-89.78 -72.78,-162.56 -162.56,-162.56z"/><path class="fil0" d="M177.84 31.91c0,-2.8 2.27,-5.06 5.07,-5.06 2.8,0 5.07,2.26 5.07,5.06l0 10.87c0,2.8 -2.27,5.07 -5.07,5.07 -2.8,0 -5.07,-2.27 -5.07,-5.07l0 -10.87z"/><path class="fil0" d="M72.55 79.74c-1.99,-1.99 -1.99,-5.21 0,-7.2 1.98,-1.99 5.2,-1.99 7.19,0l7.69 7.69c1.98,1.98 1.98,5.21 0,7.19 -1.99,1.99 -5.21,1.99 -7.2,0l-7.68 -7.68z"/><path class="fil0" d="M31.92 187.97c-2.8,0 -5.07,-2.27 -5.07,-5.06 0,-2.8 2.27,-5.07 5.07,-5.07l10.87 0c2.8,0 5.07,2.27 5.07,5.07 0,2.79 -2.27,5.06 -5.07,5.06l-10.87 0z"/><path class="fil0" d="M79.74 293.27c-1.99,1.99 -5.21,1.99 -7.19,0 -1.99,-1.99 -1.99,-5.21 0,-7.19l7.68 -7.69c1.99,-1.99 5.21,-1.99 7.2,0 1.98,1.99 1.98,5.21 0,7.19l-7.69 7.69z"/><path class="fil0" d="M187.98 333.9c0,2.8 -2.27,5.07 -5.07,5.07 -2.8,0 -5.07,-2.27 -5.07,-5.07l0 -10.87c0,-2.8 2.27,-5.07 5.07,-5.07 2.8,0 5.07,2.27 5.07,5.07l0 10.87z"/><path class="fil0" d="M293.28 286.08c1.98,1.98 1.98,5.2 0,7.19 -1.99,1.99 -5.21,1.99 -7.2,0l-7.68 -7.69c-1.99,-1.98 -1.99,-5.2 0,-7.19 1.98,-1.99 5.2,-1.99 7.19,0l7.69 7.69z"/><path class="fil0" d="M333.9 177.84c2.8,0 5.07,2.27 5.07,5.07 0,2.79 -2.27,5.06 -5.07,5.06l-10.87 0c-2.8,0 -5.06,-2.27 -5.06,-5.06 0,-2.8 2.26,-5.07 5.06,-5.07l10.87 0z"/><path class="fil0" d="M286.08 72.54c1.99,-1.99 5.21,-1.99 7.2,0 1.98,1.99 1.98,5.21 0,7.2l-7.69 7.68c-1.99,1.99 -5.21,1.99 -7.19,0 -1.99,-1.98 -1.99,-5.21 0,-7.19l7.68 -7.69z"/><path class="fil0" d="M177.7 201.26l-46.57 93.13c-0.87,1.75 -3,2.46 -4.75,1.59 -1.76,-0.88 -2.47,-3.01 -1.59,-4.76l46.57 -93.13c-4.58,-3.49 -7.53,-8.99 -7.53,-15.18 0,-2.37 0.43,-4.64 1.22,-6.73l-65.9 -64.03c-3.21,-3.12 -3.28,-8.26 -0.16,-11.48 3.13,-3.21 8.27,-3.28 11.48,-0.16l66.23 64.35c1.95,-0.67 4.04,-1.03 6.21,-1.03 6.48,0 12.2,3.22 15.65,8.15l61.85 -10.57c4.42,-0.76 8.62,2.22 9.38,6.65 0.75,4.42 -2.22,8.62 -6.65,9.38l-61.84 10.57c-2.23,8.06 -9.62,13.98 -18.39,13.98 -1.81,0 -3.56,-0.26 -5.21,-0.73z"/></g></svg>