<svg height='300px' width='300px'  fill="#000000" xmlns="http://www.w3.org/2000/svg" xmlns:xlink="http://www.w3.org/1999/xlink" version="1.2" baseProfile="tiny" x="0px" y="0px" viewBox="0 0 100 100" xml:space="preserve"><path d="M86.896,55.225l5.53-22.118C92.815,31.549,91.6,30,90,30h-7.5v-7.5c0-1.381-1.119-2.5-2.5-2.5H46.035l-9.268-9.268  C36.299,10.264,35.663,10,35,10H10c-1.381,0-2.5,1.119-2.5,2.5v60c0,1.345,1.151,2.5,2.5,2.5h40.142C51.39,86.234,60.939,95,72.5,95  C84.906,95,95,84.906,95,72.5C95,65.565,91.845,59.355,86.896,55.225z M72.5,90C62.851,90,55,82.149,55,72.5S62.851,55,72.5,55  S90,62.851,90,72.5S82.149,90,72.5,90z M33.965,15l9.268,9.268C43.701,24.736,44.337,25,45,25h32.5v5H20  c-1.147,0-2.147,0.78-2.426,1.894L12.5,52.19V15H33.965z M21.952,35h64.846l-4.334,17.334C79.459,50.843,76.077,50,72.5,50  c-11.561,0-21.11,8.766-22.358,20h-36.94L21.952,35z"></path><path d="M82.5,70h-4.452H77.5H75v-7.5c0-1.381-1.119-2.5-2.5-2.5S70,61.119,70,62.5V70h-7.5c-1.381,0-2.5,1.119-2.5,2.5  s1.119,2.5,2.5,2.5H70v7.5c0,1.381,1.119,2.5,2.5,2.5s2.5-1.119,2.5-2.5V75h5h2.5c1.381,0,2.5-1.119,2.5-2.5S83.881,70,82.5,70z"></path></svg>