<svg height='300px' width='300px'  fill="#000000" xmlns="http://www.w3.org/2000/svg" data-name="Layer 1" viewBox="0 0 100 100" x="0px" y="0px"><title>145all</title><path d="M92.79,33.87a5,5,0,0,0,5-5V11.13a5,5,0,0,0-5-5H7.21a5,5,0,0,0-5,5V28.87a5,5,0,0,0,5,5H9.5v2.26H7.21a5,5,0,0,0-5,5V58.87a5,5,0,0,0,5,5H9.5v2.26H7.21a5,5,0,0,0-5,5V88.87a5,5,0,0,0,5,5H92.79a5,5,0,0,0,5-5V71.13a5,5,0,0,0-5-5H90.5V63.87h2.29a5,5,0,0,0,5-5V41.13a5,5,0,0,0-5-5H90.5V33.87Zm-3,52H10.21V74.13H89.79ZM17.5,66.13V63.87h65v2.26ZM89.79,55.87H10.21V44.13H89.79ZM17.5,36.13V33.87h65v2.26ZM89.79,25.87H10.21V14.13H89.79Z"></path><circle cx="23.88" cy="20" r="3.62"></circle><circle cx="35.62" cy="20" r="3.62"></circle><circle cx="47.36" cy="20" r="3.62"></circle><circle cx="23.88" cy="50" r="3.62"></circle><circle cx="35.62" cy="50" r="3.62"></circle><circle cx="47.36" cy="50" r="3.62"></circle><circle cx="23.88" cy="80" r="3.62"></circle><circle cx="35.62" cy="80" r="3.62"></circle><circle cx="47.36" cy="80" r="3.62"></circle></svg>