<svg height="300px" width="300px" fill="#000000" xmlns="http://www.w3.org/2000/svg" data-name="Layer 1" viewBox="0 0 24 24" x="0px" y="0px"><title>rounded</title><path d="M20,6.5a.49971.49971,0,0,0-.5-.5h-6a.5.5,0,0,0,0,1h6A.49971.49971,0,0,0,20,6.5Zm0,3a.49971.49971,0,0,0-.5-.5h-6a.5.5,0,0,0,0,1h6A.49971.49971,0,0,0,20,9.5Zm0,3a.49971.49971,0,0,0-.5-.5h-6a.5.5,0,0,0,0,1h6A.49971.49971,0,0,0,20,12.5Zm0,3a.49971.49971,0,0,0-.5-.5H4.5a.5.5,0,0,0,0,1h15A.49971.49971,0,0,0,20,15.5Zm0,3a.49971.49971,0,0,0-.5-.5H4.5a.5.5,0,0,0,0,1h15A.49971.49971,0,0,0,20,18.5ZM10,13H5a1,1,0,0,1-1-1V7A1,1,0,0,1,5,6h5a1,1,0,0,1,1,1v5A1,1,0,0,1,10,13Z"/></svg>