<svg height='300px' width='300px'  fill="#000000" xmlns="http://www.w3.org/2000/svg" xmlns:xlink="http://www.w3.org/1999/xlink" version="1.1" x="0px" y="0px" viewBox="0 0 32 32" style="enable-background:new 0 0 32 32;" xml:space="preserve"><g><path d="M26,3H13.9c-0.1,0-0.1,0-0.2,0c-4.8,0.2-8.6,4-8.6,8.8c0,0.1,0,0.1,0,0.2v16c0,0.6,0.4,1,1,1h20   c0.6,0,1-0.4,1-1V4C27,3.4,26.6,3,26,3z M13,5v6H7C7.5,7.9,9.9,5.5,13,5z M25,27H7V13h7c0.5,0,1-0.4,1-1V5h10V27z"></path><path d="M22,15H10c-0.6,0-1,0.4-1,1s0.4,1,1,1h12c0.6,0,1-0.4,1-1S22.6,15,22,15z"></path><path d="M18,13h4c0.6,0,1-0.4,1-1s-0.4-1-1-1h-4c-0.6,0-1,0.4-1,1S17.4,13,18,13z"></path><path d="M22,19H10c-0.6,0-1,0.4-1,1s0.4,1,1,1h12c0.6,0,1-0.4,1-1S22.6,19,22,19z"></path><path d="M22,23H10c-0.6,0-1,0.4-1,1s0.4,1,1,1h12c0.6,0,1-0.4,1-1S22.6,23,22,23z"></path></g></svg>