<svg height='300px' width='300px'  fill="#000000" xmlns="http://www.w3.org/2000/svg" xmlns:xlink="http://www.w3.org/1999/xlink" version="1.1" x="0px" y="0px" viewBox="0 0 100 100" enable-background="new 0 0 100 100" xml:space="preserve"><path fill="#000000" d="M72.074,84.082c-11.781,0-21.366-9.584-21.366-21.366s9.585-21.366,21.366-21.366  s21.365,9.584,21.365,21.366S83.855,84.082,72.074,84.082z M72.074,44.851c-9.852,0-17.866,8.015-17.866,17.866  s8.015,17.866,17.866,17.866c9.851,0,17.865-8.015,17.865-17.866S81.925,44.851,72.074,44.851z M71.904,78.729  c-0.004,0-0.008,0-0.013,0c-0.59-0.004-1.139-0.306-1.458-0.802c-0.323-0.502-7.928-12.359-8.619-18.71  c-0.27-2.469,0.541-4.897,2.282-6.838c1.956-2.181,4.887-3.482,7.839-3.482c2.884,0,5.66,1.206,7.616,3.308  c1.802,1.936,2.693,4.403,2.51,6.948l0,0c-0.454,6.327-8.363,18.289-8.7,18.794C73.037,78.436,72.49,78.729,71.904,78.729z   M71.936,52.397c-1.974,0-3.931,0.867-5.233,2.32c-1.068,1.19-1.568,2.654-1.409,4.122c0.409,3.746,4.142,10.668,6.633,14.845  c2.562-4.18,6.382-11.112,6.646-14.781l0,0c0.112-1.565-0.449-3.096-1.581-4.313C75.693,53.196,73.851,52.397,71.936,52.397z   M44.385,66.214H10.757c-2.313,0-4.196-1.902-4.196-4.241V31.082c0-2.29,1.883-4.153,4.196-4.153h3.059  c0.365,0,0.697-0.353,0.697-0.741v-6.117c0-2.29,1.883-4.153,4.196-4.153h15.657c1.995,0,4.211,1.308,5.153,3.042l3.648,6.723  c0.335,0.616,1.385,1.246,2.078,1.246h29.129c2.314,0,4.197,1.863,4.197,4.153v5.927c0,0.966-0.783,1.75-1.75,1.75  s-1.75-0.784-1.75-1.75v-5.927c0-0.366-0.307-0.653-0.697-0.653H45.246c-1.984,0-4.199-1.322-5.153-3.074l-3.649-6.724  c-0.332-0.612-1.361-1.213-2.077-1.213H18.709c-0.391,0-0.696,0.287-0.696,0.653v6.117c0,2.338-1.883,4.241-4.197,4.241h-3.059  c-0.391,0-0.696,0.287-0.696,0.653v30.892c0,0.388,0.332,0.741,0.696,0.741h33.628c0.967,0,1.75,0.784,1.75,1.75  S45.352,66.214,44.385,66.214z M71.925,61.447c-2.004,0-3.635-1.63-3.635-3.634s1.631-3.634,3.635-3.634s3.634,1.63,3.634,3.634  S73.929,61.447,71.925,61.447z M71.925,57.679c-0.074,0-0.135,0.06-0.135,0.134c0,0.147,0.269,0.147,0.269,0  C72.059,57.739,71.999,57.679,71.925,57.679z"></path></svg>