<svg height="300px" width="300px" fill="#000000" xmlns="http://www.w3.org/2000/svg" xmlns:xlink="http://www.w3.org/1999/xlink" version="1.1" x="0px" y="0px" viewBox="0 0 1024 1024" style="enable-background:new 0 0 1024 1024;" xml:space="preserve"><path d="M44.8,805c0.4,3.5,0.9,7.1,1.4,10.6c2.3,10.2,9.9,18.4,18.4,23.9c1.4,0.8,2.8,1.6,4.3,2.2c0.1,0.1,0.3,0.2,0.4,0.2  c2.9,1.2,6.1,2,9.2,2.5c5.8,0.9,11.8,0.6,16.9-0.8c3.4-0.9,7.2-2.6,10.9-4.9c0.1,0,0.1-0.1,0.2-0.1c5.5-3.4,10.6-8.1,12.8-13.3  c0.3-0.7,0.7-1.4,1-2.1c5.2-10.9,12-21.2,19.3-30.9c2.4-3,4.8-5.9,7.3-8.8c15.2-17.7,32.2-33.5,50.4-48c-0.6,0.5-1.2,0.9-1.7,1.3  c1.9-1.5,3.8-2.9,5.7-4.4c-1.4,1-2.7,2-4,3.1c5.2-3.9,10.5-7.7,15.9-11.4c27.5-18.8,56.9-34.4,87.4-47.6c-1.1,0.5-2.3,0.9-3.4,1.4  c2.4-1,4.8-2,7.2-3c-1.3,0.5-2.5,1-3.8,1.6c9.7-3.9,19.5-7.6,29.4-11.1c48.8-17,99.5-28.4,150.7-35.5c-1.8,0.2-3.7,0.4-5.6,0.7  c3.5-0.5,7.1-1,10.6-1.4c-1.4,0.2-2.9,0.4-4.4,0.6c25.4-3.2,50.9-5.4,76.5-6.8v98.7c0,14.1,7.6,27.4,19.8,34.5  c11.4,6.6,29.2,8.2,40.4,0c0.2-0.1,0.4-0.3,0.6-0.4c14-9.7,27.5-20.3,41.2-30.4c28.3-21,56.7-41.9,85-62.8  c32.8-24.2,65.6-48.4,98.4-72.6c27.1-20.1,54.2-40.1,81.3-60.1c11.3-8.3,22.6-16.7,33.9-25c6.1-3.6,10.8-8.4,14.4-14.4  c3.7-6.3,5.5-13,5.5-20.2c-0.1-7.2-1.9-14-5.5-20.2c-3.6-6.1-8.4-10.8-14.4-14.4c-0.2-0.1-0.4-0.3-0.6-0.4  c-13.7-10.2-27.4-20.3-41.4-30.3c-28.3-21-56.7-41.9-85-62.8L733,269.6c-27.1-20.1-54.2-40.1-81.3-60.1c-11.3-8.3-22.6-16.7-33.9-25  c-11.2-8.2-29.1-6.6-40.4,0c-12.2,7.1-19.8,20.4-19.8,34.5v103.2c-81.1,7-160.4,26.4-233,63.8c-56.2,29-107.5,69.5-148.4,117.7  c-34.5,40.5-63.2,85.6-84.6,134.4c-16.1,36.6-29.4,74.3-38.1,113.4c-3.5,15.6-6.4,31.5-8.2,47.4c-0.2,1.1-0.3,2.2-0.4,3.4  C44.8,803.3,44.8,804.2,44.8,805z M171.4,655.9c14.6-29.6,32-57.8,52-84.1c-1.4,1.8-2.9,3.7-4.3,5.5c2.1-2.7,4.2-5.4,6.3-8.1  c-0.7,0.9-1.4,1.7-2,2.6c3.8-4.7,7.6-9.4,11.6-14c18.7-21.7,39.4-41.7,61.8-59.6c-0.9,0.7-1.7,1.3-2.5,1.9c2.7-2.1,5.4-4.2,8.1-6.3  c-1.9,1.4-3.8,2.9-5.7,4.4c30.5-23,63.6-42.1,98.6-57.3c-1,0.4-1.9,0.8-2.9,1.2c2.1-0.9,4.3-1.8,6.4-2.7c-1.1,0.5-2.2,0.9-3.3,1.4  c43.7-17.7,89.7-29.2,136.4-35.8c-2.4,0.2-4.9,0.6-7.3,0.9c3.5-0.5,7.1-1,10.6-1.4c-1.1,0.2-2.2,0.3-3.3,0.5c21.9-2.8,44-4.4,66-5.1  c21.7-0.7,40-17.8,40-40v-62c22.2,16.4,44.4,32.8,66.6,49.2l98.4,72.6c22.8,16.9,45.6,33.7,68.4,50.5c-26.7,19.8-53.4,39.4-80,59.1  c-32.8,24.2-65.6,48.4-98.4,72.6c-18.3,13.6-36.7,27.2-55,40.7v-61.3c0-21.3-18.4-40.5-40-40c-9.9,0.2-19.8,0.6-29.7,1  c-71.7,3.2-143.9,12.5-213.3,31.5c-51.2,14-101.6,33.6-147.8,59.8C194.9,640.5,182.9,648,171.4,655.9z"/></svg>