<svg height="300px" width="300px" fill="#000000" xmlns="http://www.w3.org/2000/svg" xmlns:xlink="http://www.w3.org/1999/xlink" viewBox="0 0 68 68" version="1.1" x="0px" y="0px"><title>items, list, variety, unique, options, choice</title><desc>Created with Sketch.</desc><g stroke="none" stroke-width="1" fill="none" fill-rule="evenodd"><g transform="translate(-56.000000, -296.000000)" fill="#000000" fill-rule="nonzero"><path d="M60,348 L72,348 C73.1045695,348 74,348.895431 74,350 L74,362 C74,363.104569 73.1045695,364 72,364 L60,364 C58.8954305,364 58,363.104569 58,362 L58,350 C58,348.895431 58.8954305,348 60,348 Z M62,352 L62,360 L70,360 L70,352 L62,352 Z M67.7364863,321.007722 L75.7364863,335.007722 C76.4983797,336.341036 75.5356453,338 74,338 L58,338 C56.4643547,338 55.5016203,336.341036 56.2635137,335.007722 L64.2635137,321.007722 C65.031302,319.664093 66.968698,319.664093 67.7364863,321.007722 Z M61.4463594,334 L70.5536406,334 L66,326.031129 L61.4463594,334 Z M66,314 C61.0294373,314 57,309.970563 57,305 C57,300.029437 61.0294373,296 66,296 C70.9705627,296 75,300.029437 75,305 C75,309.970563 70.9705627,314 66,314 Z M66,310 C68.7614237,310 71,307.761424 71,305 C71,302.238576 68.7614237,300 66,300 C63.2385763,300 61,302.238576 61,305 C61,307.761424 63.2385763,310 66,310 Z M86,307 C84.8954305,307 84,306.104569 84,305 C84,303.895431 84.8954305,303 86,303 L122,303 C123.104569,303 124,303.895431 124,305 C124,306.104569 123.104569,307 122,307 L86,307 Z M86,332 C84.8954305,332 84,331.104569 84,330 C84,328.895431 84.8954305,328 86,328 L107,328 C108.104569,328 109,328.895431 109,330 C109,331.104569 108.104569,332 107,332 L86,332 Z M86,357 C84.8954305,357 84,356.104569 84,355 C84,353.895431 84.8954305,353 86,353 L113,353 C114.104569,353 115,353.895431 115,355 C115,356.104569 114.104569,357 113,357 L86,357 Z"/></g></g></svg>