<svg height='300px' width='300px'  fill="#000000" xmlns="http://www.w3.org/2000/svg" xmlns:xlink="http://www.w3.org/1999/xlink" version="1.1" x="0px" y="0px" viewBox="0 0 100 100" style="enable-background:new 0 0 100 100;" xml:space="preserve"><circle cx="50" cy="39.0435677" r="24.4638996"></circle><path d="M80.5791016,44.5322266c1.8320313-0.2055664,3.1933594-1.6347656,3.3085938-3.4750977  c0.1162109-1.8408203-1.0546875-3.4291992-2.8476563-3.862793c-0.0625-0.0151367-0.1669922-0.0400391-0.1777344-0.2109375  c-0.0107422-0.1713867,0.0898438-0.2094727,0.1494141-0.2319336c1.7246094-0.6542969,2.6875-2.3769531,2.3417969-4.1889648  c-0.3417969-1.7929688-1.84375-3.0327148-3.6611328-3.0327148c-0.0195313,0-0.0390625,0-0.0576172,0  c-0.0712891-0.0048828-0.171875,0.0009766-0.2246094-0.1606445c-0.0537109-0.1630859,0.0341797-0.2246094,0.0869141-0.2617188  c1.5068359-1.0629883,2.0117188-2.9711914,1.2265625-4.6396484c-0.7851563-1.6679688-2.5732422-2.4980469-4.3564453-2.0126953  C76.3056641,22.472168,76.2001953,22.5,76.109375,22.3549805c-0.0917969-0.1445313-0.0224609-0.2260742,0.0185547-0.2749023  c1.1962891-1.4042969,1.2099609-3.3779297,0.0351563-4.7988281c-1.1748047-1.4199219-3.1162109-1.7797852-4.7197266-0.8657227  C71.3867188,16.4462891,71.2929688,16.5,71.1689453,16.3828125c-0.125-0.1176758-0.078125-0.2143555-0.0498047-0.2719727  c0.8085938-1.6572266,0.3310547-3.5722656-1.1611328-4.65625c-1.4921875-1.0830078-3.4599609-0.9458008-4.7871094,0.3359375  c-0.046875,0.0444336-0.1240234,0.1176758-0.2734375,0.0361328c-0.1503906-0.0825195-0.1289063-0.1875-0.1162109-0.2504883  c0.3710938-1.8066406-0.5673828-3.5424805-2.2822266-4.2216797c-1.7167969-0.6787109-3.5878906-0.0551758-4.5537109,1.515625  c-0.0332031,0.0551758-0.0869141,0.1479492-0.2548828,0.1030273c-0.1669922-0.0424805-0.171875-0.1503906-0.1748047-0.2138672  c-0.0898438-1.8417969-1.4296875-3.2895508-3.2587891-3.5214844c-1.8222656-0.2280273-3.4892578,0.8369141-4.0351563,2.5996094  v0.0009766C50.203125,7.8994141,50.1708984,8.0014648,50,8.0014648s-0.203125-0.1020508-0.2216797-0.1640625  c-0.5458984-1.7626953-2.2128906-2.8334961-4.0351563-2.5996094c-1.8291016,0.2319336-3.1689453,1.6796875-3.2587891,3.5205078  c-0.0029297,0.0644531-0.0078125,0.1723633-0.1748047,0.2148438c-0.1699219,0.0424805-0.2216797-0.0488281-0.2558594-0.1030273  c-0.9648438-1.5708008-2.8369141-2.1938477-4.5527344-1.515625c-1.7148438,0.6791992-2.6533203,2.4150391-2.2822266,4.222168  c0.0126953,0.0625,0.0341797,0.1674805-0.1162109,0.25c-0.1494141,0.0805664-0.2275391,0.0078125-0.2734375-0.0366211  c-1.3261719-1.2802734-3.2939453-1.418457-4.7871094-0.3354492c-1.4921875,1.0839844-1.9697266,2.9990234-1.1611328,4.65625  c0.0283203,0.0576172,0.0751953,0.1542969-0.0498047,0.2719727c-0.1230469,0.1186523-0.2167969,0.0649414-0.2744141,0.0327148  c-1.6005859-0.909668-3.5429688-0.5556641-4.7197266,0.8657227c-1.1748047,1.4208984-1.1611328,3.3945313,0.0351563,4.7993164  c0.0410156,0.0483398,0.1103516,0.1298828,0.0185547,0.2744141C23.7988281,22.5,23.6962891,22.472168,23.6328125,22.4555664  c-1.7802734-0.4863281-3.5703125,0.3442383-4.3564453,2.012207c-0.7851563,1.668457-0.2802734,3.5766602,1.2265625,4.6396484  c0.0527344,0.0371094,0.140625,0.0986328,0.0869141,0.2617188c-0.0488281,0.1503906-0.1435547,0.1611328-0.2089844,0.1611328  c-0.0234375,0.0004883-0.0488281-0.0004883-0.0722656-0.0004883c-1.8183594,0-3.3203125,1.2397461-3.6621094,3.0327148  c-0.3457031,1.8120117,0.6171875,3.534668,2.3417969,4.1889648c0.0595703,0.0224609,0.1601563,0.0605469,0.1494141,0.2319336  c-0.0107422,0.1708984-0.1152344,0.1958008-0.1777344,0.2109375c-1.7929688,0.4335938-2.9638672,2.0219727-2.8476563,3.862793  c0.1152344,1.840332,1.4765625,3.2695313,3.3095703,3.4750977c0.0634766,0.0068359,0.1708984,0.019043,0.2021484,0.1875  c0.0322266,0.1679688-0.0625,0.2182617-0.1191406,0.2485352c-1.6289063,0.8657227-2.3681641,2.6948242-1.7978516,4.4492188  c0.5693359,1.7548828,2.2470703,2.7998047,4.0703125,2.5429688c0.0625-0.0083008,0.1689453-0.0249023,0.2421875,0.1313477  c0.0732422,0.1547852-0.0058594,0.2270508-0.0537109,0.2709961c-1.3623047,1.2431641-1.6230469,3.1992188-0.6347656,4.7563477  c0.9882813,1.5566406,2.8691406,2.1547852,4.5742188,1.4501953c0.0595703-0.0249023,0.1591797-0.0649414,0.2675781,0.0668945  c0.109375,0.1318359,0.0507813,0.2211914,0.015625,0.2758789c-1.0107422,1.5429688-0.7763672,3.5024414,0.5673828,4.7651367  c1.3427734,1.2612305,3.3134766,1.3730469,4.7919922,0.2670898c0.0507813-0.0385742,0.1347656-0.1040039,0.2753906-0.0019531  c0.1386719,0.1010742,0.1044922,0.2026367,0.0839844,0.2636719c-0.5947266,1.7460938,0.1191406,3.5859375,1.7353516,4.4741211  c0.520874,0.2867432,1.0750732,0.4273682,1.6259766,0.456604v20.715271c0,1.7172852,1.0263672,3.2495117,2.6132813,3.9038086  c1.5917969,0.6533203,3.3974609,0.2885742,4.6064453-0.9306641L50,85.2504883l7.5117188,7.574707  c0.8105469,0.8173828,1.890625,1.2509766,2.9931641,1.2509766c0.5419922,0,1.0888672-0.1049805,1.6132813-0.3203125  c1.5869141-0.6542969,2.6132813-2.1865234,2.6132813-3.9038086V69.1359863  c0.5508423-0.0292358,1.1049805-0.1696167,1.6259766-0.4558105c1.6162109-0.8881836,2.3300781-2.7280273,1.7353516-4.4746094  c-0.0205078-0.0605469-0.0546875-0.1621094,0.0839844-0.2631836c0.1386719-0.1020508,0.2255859-0.0366211,0.2753906,0.0024414  c1.4765625,1.1044922,3.4472656,0.9936523,4.7919922-0.2675781c1.34375-1.2626953,1.578125-3.222168,0.5673828-4.7661133  c-0.0351563-0.0537109-0.09375-0.1430664,0.015625-0.2749023c0.1083984-0.1318359,0.2070313-0.0917969,0.2675781-0.0668945  c1.7041016,0.7041016,3.5849609,0.1074219,4.5742188-1.4501953c0.9882813-1.5571289,0.7275391-3.5131836-0.6347656-4.7573242  c-0.0478516-0.0429688-0.1269531-0.1152344-0.0537109-0.2700195c0.0722656-0.1557617,0.1796875-0.140625,0.2421875-0.1313477  c1.8242188,0.2529297,3.5009766-0.7885742,4.0703125-2.5429688c0.5703125-1.7543945-0.1689453-3.5834961-1.7978516-4.4492188  c-0.0566406-0.0302734-0.1513672-0.0805664-0.1191406-0.2485352C80.4072266,44.5512695,80.5146484,44.5390625,80.5791016,44.5322266  z M60.7841797,90.5195313c-0.1650391,0.0693359-0.4902344,0.1386719-0.7880859-0.1591797L50,80.2797852l-9.9960938,10.0805664  c-0.2978516,0.2978516-0.6210938,0.2280273-0.7880859,0.1591797s-0.4472656-0.2470703-0.4472656-0.6674805V68.5668335  c0.1417847,1.5540161,1.2164917,2.8428345,2.7861328,3.2461548c1.7851563,0.4594727,3.5664063-0.3925781,4.3291016-2.0737305  c0.0263672-0.0581055,0.0615234-0.1582031,0.2402344-0.1347656c0.1708984,0.0214844,0.1894531,0.1274414,0.2001953,0.1904297  C46.6445313,71.6113281,48.15625,72.8798828,50,72.8798828s3.3554688-1.2685547,3.6757813-3.0844727  c0.0107422-0.0634766,0.0292969-0.1694336,0.2001953-0.190918c0.1777344-0.019043,0.2138672,0.0771484,0.2402344,0.1352539  c0.7626953,1.6796875,2.5400391,2.5322266,4.3291016,2.0732422c1.5696411-0.4033203,2.6443481-1.6921387,2.7861328-3.2458496  v21.2849121C61.2314453,90.2724609,60.9511719,90.4506836,60.7841797,90.5195313z M80.1894531,41.0537109  c-1.6367188,0.1831055-2.9433594,1.3925781-3.2519531,3.0097656s0.4609375,3.2226563,1.9150391,3.9956055  c0.0810547,0.0429688,0.171875,0.0913086,0.1123047,0.2768555c-0.0605469,0.1865234-0.1640625,0.1713867-0.2539063,0.1586914  c-1.6230469-0.2260742-3.1972656,0.6166992-3.8974609,2.1069336c-0.7011719,1.4897461-0.3544922,3.2363281,0.8613281,4.3452148  c0.0673828,0.0620117,0.1435547,0.1318359,0.0390625,0.296875c-0.1044922,0.1625977-0.1982422,0.1259766-0.2851563,0.090332  c-1.5205078-0.6274414-3.25-0.1972656-4.2988281,1.0717773c-1.0498047,1.2685547-1.1484375,3.0458984-0.2460938,4.4223633  c0.0498047,0.0771484,0.1064453,0.1640625-0.0361328,0.2973633c-0.1416016,0.1352539-0.2255859,0.0712891-0.2978516,0.0170898  c-1.3183594-0.9863281-3.0986328-0.9990234-4.4306641-0.03125s-1.8701172,2.6650391-1.3388672,4.2226563  c0.0292969,0.0864258,0.0625,0.1845703-0.1083984,0.2788086c-0.1708984,0.0922852-0.2324219,0.0166016-0.2939453-0.0585938  c-1.0302734-1.2822266-2.75-1.7392578-4.2832031-1.1313477c-1.5302734,0.605957-2.4736328,2.1157227-2.3476563,3.7573242  c0.0078125,0.0913086,0.015625,0.1943359-0.1728516,0.2431641c-0.1914063,0.0458984-0.2333984-0.0463867-0.2705078-0.1293945  c-0.6796875-1.4990234-2.2392578-2.3662109-3.8652344-2.1621094c-1.6337891,0.2060547-2.9238281,1.4335938-3.2099609,3.0556641  C50.2128906,69.277832,50.1953125,69.3798828,50,69.3798828s-0.2128906-0.1020508-0.2285156-0.1928711  c-0.2861328-1.621582-1.5761719-2.8491211-3.2099609-3.0551758c-0.1591797-0.0200195-0.3183594-0.0297852-0.4755859-0.0297852  c-1.4521484,0-2.7763672,0.8393555-3.3896484,2.1914063c-0.0371094,0.0834961-0.0800781,0.1757813-0.2705078,0.1298828  c-0.1884766-0.0488281-0.1806641-0.1518555-0.1728516-0.2436523c0.1259766-1.6411133-0.8173828-3.1508789-2.3476563-3.7568359  c-1.53125-0.6069336-3.2519531-0.1518555-4.2841797,1.1318359c-0.0605469,0.0756836-0.1240234,0.1503906-0.2929688,0.0581055  c-0.1708984-0.0942383-0.1376953-0.1923828-0.1083984-0.2783203c0.53125-1.5581055-0.0068359-3.2553711-1.3388672-4.2231445  c-1.3310547-0.9677734-3.1103516-0.9545898-4.4306641,0.0307617c-0.0712891,0.0546875-0.15625,0.1186523-0.2978516-0.0166016  c-0.1425781-0.1333008-0.0859375-0.2202148-0.0361328-0.2963867c0.9023438-1.3774414,0.8037109-3.1547852-0.2460938-4.4233398  c-1.0478516-1.2680664-2.7753906-1.7001953-4.2988281-1.0717773c-0.0869141,0.0341797-0.1816406,0.0712891-0.2851563-0.090332  c-0.1044922-0.1650391-0.0283203-0.2348633,0.0390625-0.2958984c1.2158203-1.1098633,1.5625-2.8564453,0.8613281-4.3461914  c-0.7001953-1.4897461-2.2626953-2.3374023-3.8974609-2.1069336c-0.0898438,0.0126953-0.1933594,0.027832-0.2539063-0.1586914  c-0.0595703-0.1855469,0.03125-0.2338867,0.1123047-0.2768555c1.4541016-0.7729492,2.2236328-2.378418,1.9150391-3.9956055  s-1.6152344-2.8266602-3.2509766-3.0097656c-0.0908203-0.0102539-0.1943359-0.0214844-0.2060547-0.2163086  c-0.0126953-0.1948242,0.0878906-0.2192383,0.1767578-0.2407227c1.6005859-0.3867188,2.7451172-1.7504883,2.8486328-3.3935547  s-0.8613281-3.1396484-2.4003906-3.7241211c-0.0859375-0.0322266-0.1826172-0.0688477-0.1455078-0.2607422  c0.0361328-0.1918945,0.1386719-0.1938477,0.2314453-0.1884766c1.6210938,0.015625,3.09375-1.0136719,3.6025391-2.5795898  c0.5087891-1.5654297-0.0537109-3.2548828-1.3984375-4.203125c-0.0751953-0.0527344-0.1601563-0.112793-0.0771484-0.2890625  c0.0839844-0.1772461,0.1845703-0.1503906,0.2714844-0.125c1.5898438,0.4301758,3.2490234-0.2133789,4.1308594-1.6030273  c0.8828125-1.3896484,0.7578125-3.1655273-0.3095703-4.418457c-0.0585938-0.0698242-0.1259766-0.1489258-0.0019531-0.2993164  c0.125-0.1513672,0.2138672-0.0986328,0.2939453-0.0537109c1.4335938,0.8144531,3.2001953,0.6020508,4.3994141-0.5244141  c1.2001953-1.1269531,1.5214844-2.8779297,0.7998047-4.3574219c-0.0410156-0.0825195-0.0859375-0.1757813,0.0722656-0.2900391  c0.1591797-0.1147461,0.2314453-0.0424805,0.2978516,0.0205078c1.1845703,1.1450195,2.9492188,1.378418,4.3916016,0.5864258  c1.4423828-0.793457,2.1894531-2.409668,1.8574219-4.0214844c-0.0175781-0.0898438-0.0390625-0.1914063,0.1425781-0.2631836  c0.1777344-0.0722656,0.2353516,0.0161133,0.2832031,0.0942383c0.8632813,1.4023438,2.5146484,2.0693359,4.1064453,1.6606445  c1.5947266-0.4091797,2.7207031-1.7890625,2.8017578-3.4345703c0.0048828-0.0957031,0.0097656-0.1943359,0.2021484-0.21875  c0.1865234-0.0258789,0.2246094,0.0737305,0.2519531,0.1611328C46.9199219,10.4448242,48.3535156,11.5014648,50,11.5014648  s3.0791016-1.0561523,3.5654297-2.6289063c0.0273438-0.0869141,0.0556641-0.1865234,0.2519531-0.1621094  c0.1923828,0.0244141,0.1972656,0.1230469,0.2021484,0.2197266c0.0810547,1.6445313,1.2070313,3.0244141,2.8017578,3.4335938  c1.59375,0.4077148,3.2451172-0.2583008,4.1054688-1.6606445c0.0488281-0.078125,0.1054688-0.1655273,0.2841797-0.0942383  c0.1816406,0.0717773,0.1601563,0.1733398,0.1425781,0.2626953c-0.3320313,1.6123047,0.4150391,3.2285156,1.8574219,4.0219727  c1.4404297,0.7919922,3.2070313,0.5585938,4.3916016-0.5859375c0.0664063-0.0639648,0.140625-0.1362305,0.2978516-0.0209961  c0.1582031,0.1142578,0.1132813,0.2075195,0.0722656,0.2900391c-0.7216797,1.4794922-0.4003906,3.2304688,0.7998047,4.3574219  c1.1992188,1.1274414,2.9707031,1.3364258,4.3994141,0.5244141c0.0800781-0.0449219,0.1689453-0.0976563,0.2939453,0.0537109  c0.1240234,0.1503906,0.0566406,0.2294922-0.0019531,0.2988281c-1.0673828,1.253418-1.1923828,3.0292969-0.3095703,4.4189453  c0.8808594,1.3896484,2.5371094,2.0356445,4.1308594,1.6025391c0.0869141-0.0239258,0.1865234-0.0517578,0.2714844,0.1254883  c0.0830078,0.1762695-0.0019531,0.2363281-0.0771484,0.2890625c-1.3447266,0.9482422-1.9072266,2.6376953-1.3984375,4.203125  c0.5029297,1.5488281,1.9248047,2.5795898,3.5488281,2.5795898c0.0185547,0,0.0361328,0,0.0546875,0  c0.0830078-0.0048828,0.1943359-0.003418,0.2304688,0.1884766c0.0371094,0.1918945-0.0595703,0.2285156-0.1455078,0.2607422  c-1.5390625,0.5844727-2.5039063,2.0810547-2.4003906,3.7241211s1.2480469,3.0068359,2.8486328,3.3935547  c0.0888672,0.0214844,0.1894531,0.0458984,0.1767578,0.2407227C80.3828125,41.0322266,80.2792969,41.043457,80.1894531,41.0537109z"></path></svg>