<svg height='300px' width='300px'  fill="#000000" xmlns="http://www.w3.org/2000/svg" xmlns:xlink="http://www.w3.org/1999/xlink" xml:space="preserve" version="1.1" style="shape-rendering:geometricPrecision;text-rendering:geometricPrecision;image-rendering:optimizeQuality;" viewBox="0 0 111 429" x="0px" y="0px" fill-rule="evenodd" clip-rule="evenodd"><defs><style type="text/css">
   
    .fil0 {fill:#000000}
   
  </style></defs><g><path class="fil0" d="M111 22l0 73c0,12 -9,22 -21,22l-68 0c-12,0 -22,-10 -22,-22l0 -73c0,-12 10,-22 22,-22l68 0c12,0 21,10 21,22zm-29 36c0,15 -12,27 -26,27 -15,0 -27,-12 -27,-27 0,-14 12,-26 27,-26 14,0 26,12 26,26z"></path><path class="fil0" d="M111 178l0 73c0,12 -9,22 -21,22l-68 0c-12,0 -22,-10 -22,-22l0 -73c0,-12 10,-22 22,-22l68 0c12,0 21,10 21,22zm-29 36c0,15 -12,27 -26,27 -15,0 -27,-12 -27,-27 0,-14 12,-26 27,-26 14,0 26,12 26,26z"></path><path class="fil0" d="M111 334l0 73c0,12 -9,22 -21,22l-68 0c-12,0 -22,-10 -22,-22l0 -73c0,-12 10,-22 22,-22l68 0c12,0 21,10 21,22zm-29 36c0,15 -12,27 -26,27 -15,0 -27,-12 -27,-27 0,-14 12,-26 27,-26 14,0 26,12 26,26z"></path></g></svg>