<svg height="300px" width="300px" fill="#000000" xmlns="http://www.w3.org/2000/svg" viewBox="0 0 24 24" x="0px" y="0px"><path d="M180,19 C176.134007,19 173,15.8659932 173,12 C173,8.13400675 176.134007,5 180,5 C183.865993,5 187,8.13400675 187,12 C187,15.8659932 183.865993,19 180,19 Z M180,18 C183.313708,18 186,15.3137085 186,12 C186,8.6862915 183.313708,6 180,6 C176.686292,6 174,8.6862915 174,12 C174,15.3137085 176.686292,18 180,18 Z M179.5,8.5 L180.5,8.5 L180.5,15.5 L179.5,15.5 L179.5,8.5 Z" transform="translate(-168)"/></svg>