<svg height='300px' width='300px'  fill="#FFFFFF" xmlns="http://www.w3.org/2000/svg" xmlns:xlink="http://www.w3.org/1999/xlink" xmlns:sketch="http://www.bohemiancoding.com/sketch/ns" viewBox="0 0 30 30" version="1.1" x="0px" y="0px"><title>action_006-open-new-tab-window-move-arrow</title><desc>Created with Sketch.</desc><g stroke="none" stroke-width="1" fill="none" fill-rule="evenodd" sketch:type="MSPage"><g sketch:type="MSArtboardGroup" transform="translate(-270.000000, -45.000000)" fill="#FFFFFF"><path d="M279,48 L297,48 L297,66 L279,66 L279,48 Z M280,49 L296,49 L296,65 L280,65 L280,49 Z M283.910004,60.3730788 L293.280678,51 L287.991695,51 L287.991695,50 L294.990004,50 L294.990004,56.9901892 L293.990215,56.9901892 L293.990215,51.704527 L284.616961,61.0801856 L283.910004,60.3730788 Z M291,70 L290,70 L290,71 L289,71 L289,72 L291,72 L291,70 Z M273,70 L274,70 L274,71 L275,71 L275,72 L273,72 L273,70 Z M286,71 L288,71 L288,72 L286,72 L286,71 Z M283,71 L285,71 L285,72 L283,72 L283,71 Z M280,71 L282,71 L282,72 L280,72 L280,71 Z M276,71 L279,71 L279,72 L276,72 L276,71 Z M273,66 L274,66 L274,69 L273,69 L273,66 Z M273,63 L274,63 L274,65 L273,65 L273,63 Z M273,60 L274,60 L274,62 L273,62 L273,60 Z M273,57 L274,57 L274,59 L273,59 L273,57 Z M276,54 L278,54 L278,55 L276,55 L276,54 Z M290,67 L291,67 L291,69 L290,69 L290,67 Z M273,56 L274,56 L274,55 L275,55 L275,54 L273,54 L273,56 Z" sketch:type="MSShapeGroup"></path></g></g></svg>