<svg height='300px' width='300px'  fill="#000000" xmlns="http://www.w3.org/2000/svg" viewBox="0 0 64 64" x="0px" y="0px"><title>Website</title><g><path d="M57,7H7a5,5,0,0,0-5,5V52a5,5,0,0,0,5,5H57a5,5,0,0,0,5-5V12A5,5,0,0,0,57,7ZM29,12a2,2,0,1,1-2,2A2,2,0,0,1,29,12Zm-9,0a2,2,0,1,1-2,2A2,2,0,0,1,20,12Zm-9,0a2,2,0,1,1-2,2A2,2,0,0,1,11,12ZM60,52a3,3,0,0,1-3,3H7a3,3,0,0,1-3-3V20H60Z"></path><rect x="8" y="25" width="18" height="14" rx="1" ry="1"></rect><path d="M55,27H31a1,1,0,0,1,0-2H55a1,1,0,0,1,0,2Z"></path><path d="M55,33H31a1,1,0,0,1,0-2H55a1,1,0,0,1,0,2Z"></path><path d="M55,39H31a1,1,0,0,1,0-2H55a1,1,0,0,1,0,2Z"></path><path d="M55,45H9a1,1,0,0,1,0-2H55a1,1,0,0,1,0,2Z"></path><path d="M55,51H9a1,1,0,0,1,0-2H55a1,1,0,0,1,0,2Z"></path></g></svg>