<svg height='300px' width='300px'  fill="#000000" xmlns="http://www.w3.org/2000/svg" viewBox="0 0 32 32" x="0px" y="0px"><title>file, folder, document, tick, check, folder, data, mark</title><g data-name="Layer 19"><path d="M21.78,14.37a1,1,0,0,1-.15,1.41l-6.75,5.46a1,1,0,0,1-.63.22,1,1,0,0,1-.74-.32l-2.25-2.47a1,1,0,1,1,1.48-1.34l1.61,1.76,6-4.87A1,1,0,0,1,21.78,14.37ZM30,9V24a3,3,0,0,1-3,3H5a3,3,0,0,1-3-3V8A3,3,0,0,1,5,5h7.76A3,3,0,0,1,15,6H27A3,3,0,0,1,30,9ZM27,8H16.12l.22.45a1,1,0,0,0,.9.55H27a3,3,0,0,1,1,.18V9A1,1,0,0,0,27,8Zm1,5V12a1,1,0,0,0-1-1H17.24a3,3,0,0,1-2.69-1.66l-.89-1.79a1,1,0,0,0-.9-.55H5A1,1,0,0,0,4,8V24a1,1,0,0,0,1,1H27a1,1,0,0,0,1-1Z"></path></g></svg>