<svg height="300px" width="300px" fill="#000000" xmlns="http://www.w3.org/2000/svg" data-name="Layer 1" viewBox="0 0 100 100" x="0px" y="0px"><title>Artboard 10</title><path d="M94.12,50l4.35-13.67a6.07,6.07,0,0,0-3.94-7.62l-8-2.53L81.68,10.86a6.07,6.07,0,0,0-7.62-3.94L50,14.56,25.94,6.91a6.07,6.07,0,0,0-7.62,3.94L13.45,26.17l-8,2.53a6.07,6.07,0,0,0-3.94,7.62L5.88,50,1.54,63.67a6.07,6.07,0,0,0,3.94,7.62l8,2.53,4.87,15.32a6.05,6.05,0,0,0,7.62,3.94L50,85.44l24.06,7.65a6.07,6.07,0,0,0,7.62-3.94l4.87-15.32,8-2.53a6.07,6.07,0,0,0,3.94-7.62ZM93,33.47a1.07,1.07,0,0,1,.69,1.34l-2.2,6.93L88.4,32ZM23.09,12.37a1.07,1.07,0,0,1,1.34-.69l17.32,5.5L19.29,24.32ZM7,66.53a1.07,1.07,0,0,1-.69-1.34l2.2-6.93L11.6,68Zm69.92,21.1a1.07,1.07,0,0,1-1.34.69l-17.32-5.5,22.46-7.14ZM93,66.53,24.43,88.32a1.07,1.07,0,0,1-1.34-.69h0L6.3,34.81A1.07,1.07,0,0,1,7,33.47l68.58-21.8a1.07,1.07,0,0,1,.32-.05,1.08,1.08,0,0,1,.49.12,1.06,1.06,0,0,1,.53.63L93.7,65.19A1.07,1.07,0,0,1,93,66.53ZM58.1,35.85a32.18,32.18,0,0,1-28,35.27l-.31,0a2.5,2.5,0,0,1-.3-5A27.18,27.18,0,0,0,53.14,36.5l-3.67,4.7a2.5,2.5,0,0,1-3.94-3.08l7.39-9.48a2.5,2.5,0,0,1,3.51-.43l9.48,7.39a2.5,2.5,0,1,1-3.08,3.94ZM27.41,53.4,29,49.28l-4.12-1.58A2.5,2.5,0,1,1,26.66,43l4.12,1.58,1.58-4.12A2.5,2.5,0,0,1,37,42.28L35.45,46.4,39.58,48a2.5,2.5,0,1,1-1.79,4.67l-4.12-1.58-1.58,4.12a2.5,2.5,0,0,1-4.67-1.79Zm51.07,6.52a2.5,2.5,0,0,1-3.23,1.44l-4.12-1.58L69.54,63.9a2.5,2.5,0,0,1-4.67-1.79L66.45,58,62.33,56.4a2.5,2.5,0,1,1,1.79-4.67l4.12,1.58,1.58-4.12A2.5,2.5,0,0,1,74.5,51l-1.58,4.12L77,56.69A2.5,2.5,0,0,1,78.48,59.92Z"/></svg>