<svg height="300px" width="300px" fill="#000000" xmlns:dc="http://purl.org/dc/elements/1.1/" xmlns:cc="http://creativecommons.org/ns#" xmlns:rdf="http://www.w3.org/1999/02/22-rdf-syntax-ns#" xmlns:svg="http://www.w3.org/2000/svg" xmlns="http://www.w3.org/2000/svg" xmlns:sodipodi="http://sodipodi.sourceforge.net/DTD/sodipodi-0.dtd" xmlns:inkscape="http://www.inkscape.org/namespaces/inkscape" version="1.1" x="0px" y="0px" viewBox="0 0 100 100"><g transform="translate(0,-952.36218)"><path style="text-indent:0;text-transform:none;direction:ltr;block-progression:tb;baseline-shift:baseline;color:#000000;enable-background:accumulate;" d="m 56.2188,976.36051 a 2.0001999,2.0001999 0 0 0 -1.6563,1.5 l -13,47.99999 a 2.0049378,2.0049378 0 1 0 3.875,1.0312 l 13,-47.99994 a 2.0001999,2.0001999 0 0 0 -2.2187,-2.53125 z m -21.312601,6.99997 a 2.0001999,2.0001999 0 0 0 -1.062399,0.375 L 9.8437995,1000.7355 a 2.0001999,2.0001999 0 0 0 0,3.2813 l 24.0000005,17 a 2.00712,2.00712 0 1 0 2.312399,-3.2813 l -21.6874,-15.3437 21.6874,-15.37502 a 2.0001999,2.0001999 0 0 0 -1.25,-3.6563 z m 29.937601,0 a 2.0001999,2.0001999 0 0 0 -1,3.6563 l 21.6874,15.37502 -21.6874,15.3437 a 2.00712,2.00712 0 1 0 2.312399,3.2813 l 24.000001,-17 a 2.0001999,2.0001999 0 0 0 0,-3.2813 L 66.156199,983.73548 a 2.0001999,2.0001999 0 0 0 -1.312399,-0.375 z" fill="#000000" fill-opacity="1" stroke="none" marker="none" visibility="visible" display="inline" overflow="visible"/></g></svg>