<svg height="300px" width="300px" fill="#000000" xmlns="http://www.w3.org/2000/svg" xmlns:xlink="http://www.w3.org/1999/xlink" version="1.0" x="0px" y="0px" viewBox="0 0 100 100" enable-background="new 0 0 100 100" xml:space="preserve"><path fill="none" stroke="#000000" stroke-width="2" stroke-linecap="round" stroke-linejoin="round" stroke-miterlimit="10" d="  M78.361,33.622l-14.613,8.438L78.361,33.622z"/><path fill="none" stroke="#000000" stroke-width="2" stroke-linecap="round" stroke-linejoin="round" stroke-miterlimit="10" d="  M26.296,63.68l9.952-5.746L26.296,63.68z"/><path fill="none" stroke="#000000" stroke-width="2" stroke-linecap="round" stroke-linejoin="round" stroke-miterlimit="10" d="  M83.017,69.061L63.748,57.938L83.017,69.061z"/><path fill="none" stroke="#000000" stroke-width="2" stroke-linecap="round" stroke-linejoin="round" stroke-miterlimit="10" d="  M16.981,30.938l19.267,11.123L16.981,30.938z"/><path fill="none" stroke="#000000" stroke-width="2" stroke-linecap="round" stroke-linejoin="round" stroke-miterlimit="10" d="  M50,34.122V27.5V34.122z"/><path fill="none" stroke="#000000" stroke-width="2" stroke-linecap="round" stroke-linejoin="round" stroke-miterlimit="10" d="  M50,65.875v11.623V65.875z"/><polygon fill="none" stroke="#000000" stroke-width="2" stroke-linecap="round" stroke-linejoin="round" stroke-miterlimit="10" points="  63.75,57.938 50,65.875 36.249,57.938 36.249,42.059 50,34.122 63.75,42.059 "/><circle fill="none" stroke="#000000" stroke-width="2" stroke-linecap="round" stroke-linejoin="round" stroke-miterlimit="10" cx="50.001" cy="18.75" r="8.75"/><circle fill="none" stroke="#000000" stroke-width="2" stroke-linecap="round" stroke-linejoin="round" stroke-miterlimit="10" cx="18.75" cy="68.039" r="8.75"/><path fill="none" stroke="#000000" stroke-width="2" stroke-linecap="round" stroke-linejoin="round" stroke-miterlimit="10" d="  M17.5,29.068c0,2.07-1.68,3.752-3.752,3.752c-2.07,0-3.748-1.682-3.748-3.752s1.678-3.748,3.748-3.748  C15.82,25.32,17.5,26.998,17.5,29.068z"/><circle fill="none" stroke="#000000" stroke-width="2" stroke-linecap="round" stroke-linejoin="round" stroke-miterlimit="10" cx="86.25" cy="70.93" r="3.75"/><circle fill="none" stroke="#000000" stroke-width="2" stroke-linecap="round" stroke-linejoin="round" stroke-miterlimit="10" cx="83.75" cy="30.509" r="6.25"/><path fill="none" stroke="#000000" stroke-width="2" stroke-linecap="round" stroke-linejoin="round" stroke-miterlimit="10" d="  M56.25,83.752c0,3.447-2.8,6.248-6.248,6.248c-3.452,0-6.253-2.801-6.253-6.248c0-3.453,2.801-6.254,6.253-6.254  C53.45,77.498,56.25,80.299,56.25,83.752z"/></svg>