<svg height="300px" width="300px" fill="#000000" xmlns="http://www.w3.org/2000/svg" xmlns:xlink="http://www.w3.org/1999/xlink" version="1.1" x="0px" y="0px" viewBox="0 0 100 100" enable-background="new 0 0 100 100" xml:space="preserve"><polygon fill="#000000" points="26.84,79.756 45.567,88.979 43.524,79.163 "/><polygon fill="#000000" points="46.598,89.216 64.297,83.25 44.53,79.283 "/><polygon fill="#000000" points="45.221,78.442 65.717,82.556 67.15,65.221 "/><polygon fill="#000000" points="71.228,81.968 80.152,71.366 67.647,82.447 "/><polygon fill="#000000" points="15.133,40.99 12.076,59.507 21.742,59.706 "/><polygon fill="#000000" points="23.062,61.382 25.338,78.85 42.669,78.233 "/><polygon fill="#000000" points="12.443,60.475 24.188,77.443 22.003,60.673 "/><polygon fill="#000000" points="68.566,63.959 84.186,66.089 81.35,46.399 "/><polygon fill="#000000" points="66.727,81.979 83.648,66.984 68.143,64.869 "/><polygon fill="#000000" points="84.752,63.304 87.893,41.729 82.176,45.401 "/><polygon fill="#000000" points="15.75,34.233 15.558,37.28 23.789,24.672 "/><polygon fill="#000000" points="43.963,56.676 23.497,60.489 43.458,77.646 "/><polygon fill="#000000" points="34.066,34.073 60.081,36.444 49.916,18.73 "/><polygon fill="#000000" points="60.713,38.022 45.279,55.876 67.026,63.575 "/><polygon fill="#000000" points="59.981,37.4 33.821,35.016 44.553,55.249 "/><polygon fill="#000000" points="73.616,23.354 61.769,36.812 80.861,44.335 "/><polygon fill="#000000" points="80.904,45.382 61.646,37.794 67.926,63.21 "/><polygon fill="#000000" points="44.919,56.767 44.413,77.807 66.588,64.439 "/><polygon fill="#000000" points="87.811,40.641 75.156,24.874 81.91,44.43 "/><polygon fill="#000000" points="52.834,11.651 32.061,17.742 49.734,17.481 "/><polygon fill="#000000" points="48.82,18.455 29.164,18.747 33.229,33.549 "/><polygon fill="#000000" points="71.121,21.428 53.983,11.534 50.756,17.605 "/><polygon fill="#000000" points="75.011,22.065 74.475,22.494 80.48,29.977 "/><polygon fill="#000000" points="74.223,21.466 66.64,17.73 73.757,21.839 "/><polygon fill="#000000" points="61.038,36.187 72.881,22.735 50.959,18.621 "/><polygon fill="#000000" points="32.39,34.112 28.357,19.43 16.039,38.298 "/><polygon fill="#000000" points="22.458,58.854 32.175,35.159 15.59,39.404 "/><polygon fill="#000000" points="33.036,35.587 23.203,59.566 43.727,55.741 "/></svg>