<svg height='300px' width='300px'  fill="#000000" xmlns="http://www.w3.org/2000/svg" xmlns:xlink="http://www.w3.org/1999/xlink" version="1.1" x="0px" y="0px" viewBox="0 0 100 100" style="enable-background:new 0 0 100 100;" xml:space="preserve"><g><path d="M51,7C27.3,7,8,26.3,8,50s19.3,43,43,43s43-19.3,43-43S74.7,7,51,7z M71,42.2l-24,24c-0.8,0.8-1.8,1.2-2.8,1.2   c-1,0-2-0.4-2.8-1.2L29,54c-1.6-1.6-1.6-4.1,0-5.7c1.6-1.6,4.1-1.6,5.7,0l9.4,9.4l21.2-21.2c1.6-1.6,4.1-1.6,5.7,0   C72.5,38.1,72.5,40.6,71,42.2z"></path></g></svg>