<svg height='300px' width='300px'  fill="#000000" xmlns="http://www.w3.org/2000/svg" viewBox="0 0 64 64" x="0px" y="0px"><title>library-book-education-school</title><g><path d="M51,10.75a1,1,0,0,0-.47-.62,1,1,0,0,0-.77-.09L44,11.67V9a1,1,0,0,0-1-1H27a1,1,0,0,0-1,1v1H14V3a1,1,0,0,0-1-1H3A1,1,0,0,0,2,3V55a1,1,0,0,0,1,1H43a1,1,0,0,0,1-1V20.76l9,34.49A1,1,0,0,0,54,56a.84.84,0,0,0,.27,0l7-2a1,1,0,0,0,.7-1.21Zm7.77,37.57-5.08,1.45-8.4-32.09,5.08-1.45ZM49.29,12.24l.54,2-5.08,1.45-.53-2.05ZM26,50H14V16H26ZM12,11V44H4V8h8Zm0,35v2H4V46ZM28,14h6v2H28Zm8,0h6v2H36Zm6-2H36V10h6ZM28,10h6v2H28V10Zm-2,2v2H14V12ZM12,4V6H4V4ZM4,50h8v4H4Zm10,2H26v2H14ZM28,18h6V54H28Zm8,36V18h6V54Zm18.71-.24-.54-2,5.08-1.45.53,2.05Z"></path><rect x="30" y="41" width="2" height="9"></rect><rect x="30" y="37" width="2" height="2"></rect><rect x="30" y="28" width="2" height="7"></rect><rect x="30" y="22" width="2" height="4"></rect><rect x="38" y="44" width="2" height="6"></rect><rect x="38" y="22" width="2" height="20"></rect><rect x="21" y="20" width="2" height="11"></rect><rect x="21" y="33" width="2" height="2"></rect><rect x="21" y="37" width="2" height="9"></rect><rect x="17" y="24" width="2" height="13"></rect><rect x="17" y="39" width="2" height="3"></rect></g></svg>