<svg height="300px" width="300px" fill="#000000" xmlns="http://www.w3.org/2000/svg" xmlns:xlink="http://www.w3.org/1999/xlink" xml:space="preserve" version="1.1" style="shape-rendering:geometricPrecision;text-rendering:geometricPrecision;image-rendering:optimizeQuality;" viewBox="0 0 847 847" x="0px" y="0px" fill-rule="evenodd" clip-rule="evenodd"><defs><style type="text/css">
   
    .fil0 {fill:#000000}
   
  </style></defs><g><path class="fil0" d="M202 230l442 0c106,0 193,87 193,193l0 0c0,106 -87,193 -193,193l-442 0c-106,0 -192,-87 -192,-193l0 0c0,-106 86,-193 192,-193zm439 34c88,0 159,72 159,159 0,88 -71,159 -159,159 -88,0 -159,-71 -159,-159 0,-87 71,-159 159,-159z"/></g></svg>