<svg height='300px' width='300px'  fill="#000000" xmlns="http://www.w3.org/2000/svg" xmlns:xlink="http://www.w3.org/1999/xlink" version="1.1" x="0px" y="0px" viewBox="0 0 185 185" enable-background="new 0 0 185 185" xml:space="preserve"><path d="M125.012,75.328l10.604,7.916c-4.578-18.854-21.59-32.897-41.832-32.897c-13.182,0-25.461,5.92-33.69,16.243l-4.363,5.474  l-10.947-8.727l4.363-5.474c10.899-13.674,27.169-21.517,44.637-21.517c26.809,0,49.344,18.591,55.424,43.554l6.645-10.447  l11.814,7.513l-20.559,32.329l-30.471-22.748L125.012,75.328z M35.748,99.161c3.712,27.896,27.643,49.492,56.538,49.492  c19.414,0,37.32-9.739,47.896-26.052l3.809-5.874l-11.748-7.616l-3.807,5.873c-7.986,12.316-21.5,19.669-36.15,19.669  c-21.979,0-40.153-16.559-42.729-37.854l9.938,9.451l9.647-10.146L41.593,69.908L17.334,99.558l10.836,8.865L35.748,99.161z"></path></svg>