<svg height="300px" width="300px" fill="#000000" xmlns="http://www.w3.org/2000/svg" xmlns:xlink="http://www.w3.org/1999/xlink" version="1.1" x="0px" y="0px" viewBox="0 0 64 64" style="enable-background:new 0 0 64 64;" xml:space="preserve"><path d="M32.7112198,57.3017464c-0.158535,0-0.3182907-0.0012207-0.480484-0.004879  c-2.9060669-0.0621948-5.8572578-0.7743835-8.7730827-2.1158333c-9.1718588-4.2170296-14.5583906-10.408432-16.4669075-18.9254189  c-1.9402246-14.73522,3.5194764-24.0461006,16.6705647-28.5765438c0.0402431-0.0134144,0.0804863-0.0256095,0.1219501-0.0353656  c11.6291504-2.7268019,19.1937103,0.4512148,22.4912376,9.4499054c0.7426758,2.0268097,1.0524292,5.3889713,0.9682846,7.5230961  c-0.2743874,6.9060287-4.8072701,9.9852676-8.116993,12.2328033c-1.4414482,0.9792595-2.8036308,1.9048615-2.9646034,2.6682663  c-0.3878021,1.9719315,0.8195038,3.3109436,2.8536301,5.2804375c1.6597366,1.6085205,3.3767929,3.2706985,3.2609406,5.6572571  C41.6586914,55.033474,38.444088,57.3017464,32.7112198,57.3017464z M24.4149609,10.0607548  C12.4394712,14.2082739,7.6834211,22.3947773,9.4468184,35.8202515c1.7072992,7.595047,6.638957,13.2218208,15.0547266,17.092514  l0,0c2.6024132,1.1975479,5.2206802,1.8329086,7.7828484,1.8865662c6.0828667,0.1426811,7.2084656-2.3768044,7.5060234-4.5731239  c0.0524406-1.1499901-1.1365738-2.3011971-2.5133896-3.6341095c-1.8902245-1.830471-4.2438583-4.1097183-3.5633774-7.5718765  c0.3731651-1.7670555,2.0585136-2.9109459,4.009716-4.2365417c3.0292358-2.0585175,6.7987099-4.6194687,7.0243187-10.2657528  c0.0743904-1.8792496-0.2170715-4.92556-0.8182831-6.5657883C41.1050377,10.2412405,34.7270546,7.6595588,24.4149609,10.0607548z"/><path d="M17.0199127,45.4262543c-1.9292488,0-3.4999647-1.559742-3.5024042-3.4780121  c-0.0024385-1.9182739,1.5670576-3.4828949,3.4963064-3.4865532h0.0012207c0.0012188,0,0.0024376,0,0.0036583,0  c1.9292488,0,3.498745,1.559742,3.5011845,3.4780159c0.0024395,0.9316978-0.3621922,1.8085175-1.0256004,2.4670486  c-0.6597481,0.6560898-1.5377884,1.01828-2.4707069,1.0195007C17.0223522,45.4262543,17.0211315,45.4262543,17.0199127,45.4262543z   M17.0186939,40.9592247c-0.5536537,0.0012207-1.0036488,0.4439011-1.0036488,0.9865761  c0,0.5426788,0.4512138,0.9829178,1.0048676,0.9829178h0.0012188c0.2695103,0,0.5231667-0.1036568,0.7121887-0.2926788  c0.1865845-0.1853638,0.2890224-0.4317055,0.2890224-0.6926765C18.0223427,41.3994675,17.5711269,40.9592247,17.0186939,40.9592247  L17.0186939,40.9592247z"/><path d="M19.6162281,25.0106049c-2.9402142,0-5.3328733-2.3731461-5.3377514-5.2938499  c-0.0012197-1.4194965,0.5536528-2.7524109,1.5621796-3.7560596c1.0060883-0.9999895,2.3450985-1.5524235,3.7682552-1.5536423  c0.0012188,0,0.0036583,0,0.0060978,0c2.9402142,0,5.3328724,2.3743668,5.3365326,5.2950687  c0.0036583,2.9219227-2.3877811,5.303606-5.329216,5.3084831C19.6198864,25.0106049,19.6174488,25.0106049,19.6162281,25.0106049z   M19.6150093,16.9045887c-0.0012207,0-0.0024395,0-0.0036583,0c-0.7597485,0.0012188-1.473156,0.2951183-2.009737,0.8268204  c-0.5329208,0.5304832-0.8268204,1.2341347-0.8256016,1.9816875c0.0024395,1.5438881,1.2755966,2.7999725,2.8389969,2.7999725  c0.0012188,0,0.0024395,0,0.0036583,0c1.5646191-0.0024395,2.8365574-1.2621822,2.8353367-2.8085079  C22.4527855,18.1606731,21.1784077,16.9045887,19.6150093,16.9045887z"/><path d="M14.4723778,35.8909836c-2.4072933,0-4.3670301-1.9560776-4.3706884-4.3645897  c-0.0012197-2.4097328,1.9560785-4.373127,4.3658104-4.3767853l0,0c0.0012188,0,0.0024385,0,0.0036583,0  c1.1658421,0,2.2621717,0.4536533,3.0877733,1.2768154c0.8280411,0.8243828,1.2829151,1.9219322,1.2841339,3.088995  c0.0012188,1.1670609-0.4512157,2.265831-1.2755966,3.0914307c-0.8256016,0.8280411-1.9219322,1.2829132-3.088994,1.2841339  C14.4760361,35.8909836,14.4735966,35.8909836,14.4723778,35.8909836z M14.4699383,29.6471443  c-1.0316973,0.0012188-1.871932,0.8438931-1.8707132,1.8768101c0.0012197,0.4999943,0.1963396,0.9695034,0.5499945,1.3231564  c0.3536558,0.3524361,0.8243828,0.5463371,1.3231583,0.5463371c0.0012188,0,0.0024385,0,0.0036583,0  c0.4999952,0,0.9695024-0.195118,1.3231573-0.5499954c0.3524351-0.353653,0.547555-0.824379,0.5463362-1.3255959  c0-0.4999943-0.1951199-0.9695015-0.5499945-1.3231564c-0.3536549-0.3536549-0.8243818-0.5475559-1.3243771-0.5475559  C14.471158,29.6471443,14.471158,29.6471443,14.4699383,29.6471443L14.4699383,29.6471443z"/><path d="M35.0916824,28.6642265c-1.9694901,0-3.8231316-0.7597485-5.2194595-2.1414413  c-1.4012051-1.3865719-2.1743679-3.2316742-2.1768074-5.1962891c-0.0024376-1.9633961,0.7658463-3.8109379,2.163393-5.2011681  c1.3951092-1.3865719,3.2511883-2.1524172,5.226778-2.1548567l0,0c0.0024376,0,0.0060959,0,0.0085373,0  c4.0755692,0,7.3938255,3.2902117,7.3987045,7.3377314c0.0024414,1.9646149-0.7670631,3.8121567-2.1646118,5.2011681  c-1.3951073,1.3877907-3.2511864,2.1524181-5.2255592,2.1548557C35.098999,28.6642265,35.0953407,28.6642265,35.0916824,28.6642265z   M35.0880241,16.468008c-1.3109627,0.0024376-2.5426559,0.5097504-3.4682579,1.4292526  c-0.9219418,0.9170647-1.4292526,2.132906-1.426815,3.426796c0.0012207,1.2926693,0.5109711,2.5085106,1.4353523,3.4231358  c0.925602,0.9158459,2.1560745,1.4194984,3.4645996,1.4194984c0.0024376,0,0.0036583,0,0.0073166,0  c1.3109627-0.0012188,2.5426559-0.5085316,3.4670372-1.4280338c0.9219437-0.9170647,1.4292564-2.1341248,1.4280357-3.4280148  c-0.0024376-2.6707058-2.2011986-4.8426342-4.9011688-4.8426342C35.0916824,16.468008,35.0904655,16.468008,35.0880241,16.468008  L35.0880241,16.468008z"/><polygon points="52.7531319,22.859066 52.4907646,22.0527744 54.566349,22.3968983 54.0944481,23.0858841 "/><path d="M54.0939331,23.710619c-0.0341454,0-0.0695114-0.0024395-0.1036568-0.0085373l-1.3402328-0.2268276  c-0.2292633-0.0390244-0.4182892-0.2012177-0.4902382-0.4219456l-0.2634125-0.8060913  c-0.06707-0.2073135-0.0219498-0.43536,0.1207314-0.6012135c0.1414604-0.1658516,0.3597527-0.2499962,0.5756035-0.2085342  l2.0755882,0.3438988c0.2097549,0.0341473,0.3878021,0.1743889,0.4719467,0.3707294  c0.0841446,0.1963387,0.0609741,0.4219456-0.0597534,0.5975552l-0.4719467,0.6890163  C54.4914894,23.6106186,54.2975883,23.710619,54.0939331,23.710619z"/><path d="M54.8549004,21.3947868c-0.0353661,0-0.0707321-0.0024376-0.1073151-0.0097561l-2.3207092-0.4036541  c-0.1756096-0.0304871-0.3292656-0.1341438-0.4231682-0.2865829c-0.624382-1.0085258-0.7219429-2.6975327-0.2475586-4.3023949  c0.5999947-2.0365648,2.4914398-4.8414154,4.3243484-4.6487341c0.1658516,0.0195122,0.31707,0.1048765,0.4195099,0.2365828  c0.1024361,0.1317062,0.1475563,0.2987776,0.1268272,0.4646292c-0.1085358,0.8292608,0.1134109,1.5304728,0.3475571,2.2731485  c0.2938995,0.9353561,0.6280403,1.9938831,0.240242,3.3072834c-0.4902382,1.6646175-1.8487625,3.1133842-1.9060783,3.1743584  C55.189045,21.3252754,55.0244102,21.3947868,54.8549004,21.3947868z M52.9451637,19.8045597l1.6707153,0.2902412  c0.3670692-0.4390202,1.1012077-1.4060841,1.4012032-2.4231472l0,0c0.2792664-0.9475517,0.0414658-1.7036409-0.2341423-2.578023  c-0.1817055-0.5768232-0.3817024-1.2097435-0.4243851-1.9304686c-0.8268204,0.5048733-1.9365654,1.9914436-2.4048538,3.5828915  C52.5744362,18.0301876,52.6671181,19.153347,52.9451637,19.8045597z"/><polygon points="49.2326965,47.9791412 49.2326965,47.9791412 52.4265976,24.4667721 53.7266922,24.6894855 "/><path d="M49.2342262,48.603054c-0.0341454,0-0.0682945-0.0024414-0.1024399-0.0085373  c-0.3341408-0.0548782-0.5634079-0.3646317-0.517067-0.6999931l3.1938705-23.511961  c0.0219498-0.1682911,0.1121941-0.3195095,0.2487793-0.419508c0.1378021-0.0999985,0.3097496-0.1402435,0.475605-0.1121941  l1.299984,0.2231693c0.1646347,0.0292664,0.3121948,0.1231689,0.4073143,0.260973  c0.0951195,0.1378021,0.1317062,0.3085327,0.0999985,0.4731655l-4.4938583,23.2887897  C49.7890968,48.394516,49.5281258,48.603054,49.2342262,48.603054z M52.9585762,25.1910915l-0.0853615,0.6243839  l0.1195107-0.6182861L52.9585762,25.1910915z"/></svg>