<svg height="300px" width="300px" fill="#000000" xmlns="http://www.w3.org/2000/svg" xmlns:xlink="http://www.w3.org/1999/xlink" version="1.1" x="0px" y="0px" viewBox="0 0 56 56" style="enable-background:new 0 0 56 56;" xml:space="preserve"><path d="M19.0497437,6.409729c-0.6738281-0.5146484-1.5688477-0.5493164-2.2807617-0.0874023  C9.5258179,11.0269165,5.4242554,19.4121704,6.0648804,28.2051392  c0.8388672,11.4985352,10.1401367,20.8374023,21.6357422,21.7231445c0.6347656,0.0488281,1.2670898,0.0732422,1.8964844,0.0732422  c8.1186523,0,15.6875-4.0209961,20.0795898-10.7827148v-0.0004883c0.4619141-0.7114258,0.4272461-1.6069336-0.0883789-2.28125  c-0.515625-0.6748047-1.3730469-0.9458008-2.1782227-0.6835938c-2.2060547,0.7070312-4.6796875,1.0810547-7.1533203,1.0810547  c-11.9047852,0-21.590332-9.6850586-21.590332-21.5898438c0-2.4902344,0.3696289-4.9658203,1.0688477-7.1591797  C19.993103,7.7783813,19.7235718,6.9243774,19.0497437,6.409729z M40.2567749,39.3345337  c2.6787109,0,5.3632812-0.4067383,7.7460938-1.2119141l-0.0039062,0.0068359v-0.0004883  c-4.3330078,6.6713867-12.0444336,10.4272461-20.1450195,9.8051758C17.336853,47.1240845,8.8270874,38.5796509,8.0599976,28.0596313  c-0.5878906-8.065918,3.1665039-15.7524414,9.7700195-20.081543c-0.7612305,2.387207-1.1635742,5.0727539-1.1635742,7.7666016  C16.6664429,28.7520142,27.2489624,39.3345337,40.2567749,39.3345337z"/><path d="M46.6884155,16.2876587c-0.1313477-0.4160156-0.5175781-0.6987305-0.9536133-0.6987305h-6.3500977L37.418396,9.4107056  c-0.1323242-0.4150391-0.5175781-0.6967773-0.953125-0.6967773s-0.8208008,0.2817383-0.953125,0.6967773l-1.9658203,6.1782227  H27.196228c-0.4360352,0-0.8222656,0.2827148-0.9536133,0.6987305s0.0219727,0.8691406,0.3789062,1.1196289l5.1254883,3.5986328  l-1.9560547,6.0810547c-0.1328125,0.4130859,0.0161133,0.8642578,0.3681641,1.1176758  c0.3510742,0.253418,0.8266602,0.2504883,1.1767578-0.0058594l5.1298828-3.7744141l5.1430664,3.7749023  c0.1762695,0.1293945,0.3837891,0.1938477,0.5917969,0.1938477c0.2050781,0,0.4106445-0.0629883,0.5854492-0.1889648  c0.3515625-0.2543945,0.4995117-0.7060547,0.3662109-1.1191406l-1.9677734-6.0795898l5.125-3.5981445  C46.6664429,17.1567993,46.8197632,16.7036743,46.6884155,16.2876587z M39.4310913,19.7925415  c-0.3588867,0.2519531-0.5117188,0.7089844-0.3769531,1.1264648l1.2416992,3.8354492l-3.2387695-2.3774414  c-0.1762695-0.1293945-0.3837891-0.1938477-0.5917969-0.1938477s-0.4165039,0.0649414-0.5927734,0.1943359l-3.2299805,2.3769531  l1.234375-3.8374023c0.1337891-0.4169922-0.019043-0.8730469-0.3774414-1.1245117l-3.1386719-2.2036133h3.9165039  c0.4355469,0,0.8208008-0.2817383,0.953125-0.6967773l1.2348633-3.8813477l1.2353516,3.8813477  c0.1323242,0.4150391,0.5175781,0.6967773,0.953125,0.6967773h3.9160156L39.4310913,19.7925415z"/></svg>