<svg height="300px" width="300px" fill="#000000" xmlns="http://www.w3.org/2000/svg" xmlns:xlink="http://www.w3.org/1999/xlink" version="1.1" x="0px" y="0px" viewBox="0 0 100 100" style="enable-background:new 0 0 100 100;" xml:space="preserve"><g><path d="M54.1,20.3V5.2C52.6,5.1,51.6,5,50.4,5s-2.2,0.1-3.8,0.2v15.1c1.5-0.2,2.5-0.3,3.8-0.3S52.6,20.1,54.1,20.3z"/><path d="M46.6,79.7v15.1c1.5,0.1,2.5,0.2,3.8,0.2s2.2-0.1,3.8-0.2V79.7c-1.5,0.2-2.5,0.3-3.8,0.3S48.1,79.9,46.6,79.7z"/><path d="M94.8,46.9H79.7c0.2,0,0.3,2.5,0.3,3.7c0,1.3-0.1,2.3-0.3,3.8h15.1c0.1-1.5,0.2-2.5,0.2-3.8C95,49.4,94.9,46.9,94.8,46.9z"/><path d="M20,50.6c0-1.3,0.1-3.7,0.3-3.7H5.2c-0.1,0-0.2,2.5-0.2,3.7c0,1.3,0.1,2.3,0.2,3.8h15.1C20.1,52.9,20,51.9,20,50.6z"/><path d="M68.4,73.7l10.7,10.7c1.9-1.6,3.7-3.4,5.3-5.3L73.7,68.4C72.1,70.4,70.4,72.1,68.4,73.7z"/><path d="M31.6,26.3L20.9,15.6c-1.9,1.6-3.7,3.4-5.3,5.3l10.7,10.7C27.9,29.6,29.6,27.9,31.6,26.3z"/><path d="M73.7,31.6l10.7-10.7c-1.6-1.9-3.4-3.7-5.3-5.3L68.4,26.3C70.4,27.9,72.1,29.6,73.7,31.6z"/><path d="M26.3,68.4L15.6,79.1c1.6,1.9,3.4,3.7,5.3,5.3l10.7-10.7C29.6,72.1,27.9,70.4,26.3,68.4z"/><path d="M50,27.5c-12.4,0-22.5,10.1-22.5,22.5S37.6,72.5,50,72.5S72.5,62.4,72.5,50S62.4,27.5,50,27.5z M50,65c-8.3,0-15-6.7-15-15   s6.7-15,15-15s15,6.7,15,15S58.3,65,50,65z"/></g></svg>