<svg height="300px" width="300px" fill="#000000" xmlns="http://www.w3.org/2000/svg" xmlns:xlink="http://www.w3.org/1999/xlink" version="1.1" x="0px" y="0px" viewBox="0 0 60 60" style="enable-background:new 0 0 60 60;" xml:space="preserve"><path d="M22,47c0.55,0,1-0.45,1-1V26c0-0.55-0.45-1-1-1s-1,0.45-1,1v20C21,46.55,21.45,47,22,47z"/><path d="M30,47c0.55,0,1-0.45,1-1V26c0-0.55-0.45-1-1-1s-1,0.45-1,1v20C29,46.55,29.45,47,30,47z"/><path d="M38,47c0.55,0,1-0.45,1-1V26c0-0.55-0.45-1-1-1s-1,0.45-1,1v20C37,46.55,37.45,47,38,47z"/><path d="M18,54h24c2.76,0,5-2.24,5-5V20c1.65,0,3-1.35,3-3v-3c0-1.65-1.35-3-3-3H37V7c0-0.55-0.45-1-1-1H24c-0.55,0-1,0.45-1,1v4H13  c-1.65,0-3,1.35-3,3v3c0,1.65,1.35,3,3,3v29C13,51.76,15.24,54,18,54z M25,8h10v3H25V8z M12,17v-3c0-0.55,0.45-1,1-1h11h12h11  c0.55,0,1,0.45,1,1v3c0,0.55-0.45,1-1,1h-1H14h-1C12.45,18,12,17.55,12,17z M45,20v29c0,1.65-1.35,3-3,3H18c-1.65,0-3-1.35-3-3V20  H45z"/></svg>