<svg height="300px" width="300px"  fill="#A71D31" xmlns="http://www.w3.org/2000/svg" xmlns:xlink="http://www.w3.org/1999/xlink" version="1.1" x="0px" y="0px" viewBox="0 0 100 100" enable-background="new 0 0 100 100" xml:space="preserve">
<path d="M24.649,59.402c-1.736-3.008-2.881-6.173-3.61-9.282c-2.342-0.405-4.825-0.608-7.441-0.608  c-3.688,0-6.775,0.421-8.598,0.742c1.566,4.276,6.459,15.5,16.313,21.189c4.92,2.84,10.944,4.28,17.906,4.28  c1.571,0,3.031-0.076,4.333-0.188C37.889,72.925,29.551,67.892,24.649,59.402z"/>
<path d="M36.445,48.995c0-3.471,0.591-6.782,1.514-9.838c-5.285-4.402-11.132-6.887-13.958-7.923  c-0.781,4.491-2.152,16.651,3.535,26.502c4.363,7.558,11.948,12.186,17.187,14.643C41.126,67.282,36.445,58.772,36.445,48.995z"/>
<path d="M39.778,48.995c0,11.375,7.267,21.219,10.19,24.718c2.923-3.499,10.19-13.344,10.19-24.718  c0-11.374-7.268-21.219-10.19-24.718C47.046,27.774,39.778,37.62,39.778,48.995z"/>
<path d="M75.997,31.233c-2.834,1.039-8.709,3.537-14.007,7.965c0.915,3.044,1.501,6.34,1.501,9.796  c0,9.802-4.702,18.327-8.303,23.419c5.245-2.453,12.897-7.096,17.274-14.678C78.15,47.886,76.779,35.726,75.997,31.233z"/>
<path d="M60.779,75.724c6.961,0,12.985-1.44,17.905-4.28C88.562,65.74,93.439,54.531,95,50.255  c-1.826-0.321-4.923-0.744-8.599-0.744c-2.616,0-5.1,0.204-7.442,0.608c-0.729,3.109-1.873,6.274-3.609,9.282  c-4.902,8.49-13.238,13.521-18.902,16.131C57.75,75.646,59.211,75.724,60.779,75.724z"/>
</svg>